<svg width="16" height="16" viewBox="0 0 36 36" fill="none" xmlns="http://www.w3.org/2000/svg">
<g clip-path="url(#clip0_1111_15121)">
<path d="M52.4332 -0.829102H-3.07593V36.177H52.4332V-0.829102Z" fill="#00843D"/>
<path d="M24.4825 3.27515C26.1231 3.97952 27.2726 5.60968 27.2726 7.50789C27.2726 10.0505 25.2107 12.1124 22.6681 12.1124C21.5298 12.1124 20.4881 11.6989 19.6844 11.0142C20.1816 11.2275 20.7249 11.3563 21.2973 11.3813C23.8374 11.4922 25.9873 9.52218 26.0982 6.98204C26.1626 5.50727 25.5254 4.16417 24.4825 3.27516L24.4825 3.27515Z" fill="white"/>
<path d="M20.0909 6.6597L20.6126 5.05408L19.2468 6.04639H20.935L19.5692 5.05408L20.0909 6.6597Z" fill="white"/>
<path d="M13.5767 -0.829102H3.58505V36.177H13.5767V-0.829102Z" fill="#D22630"/>
<path d="M3.58511 -3.27271V-2.91009L4.147 -2.38414L3.95752 -2.20773L4.35934 -1.83532L4.18293 -1.67525V-1.90719H3.83991V-1.62951L4.61414 -0.904287H5.00615L5.04863 -1.1591H4.82321L5.06822 -1.38777L5.68237 -0.829151L5.06822 -0.267265L4.82321 -0.49594H5.04863L5.00615 -0.754015H4.61414L3.83991 -0.0287822V0.248894H4.18293V0.0169531L4.35934 0.177025L3.95752 0.549439L4.147 0.729107L3.58511 1.25179V1.61441L4.53574 0.729107L4.34626 0.549439L4.74481 0.177025L4.4018 -0.143119L4.63048 -0.352193L5.06822 0.0528879L6.02866 -0.82914L5.06822 -1.71117L4.63048 -1.30282L4.4018 -1.51516L4.74481 -1.83531L4.34626 -2.20772L4.53574 -2.38413L3.58511 -3.27269V-3.27271ZM3.58511 -1.51191V-0.146393L3.80725 -0.371801V-0.636406H4.04246L4.23192 -0.829146L4.04246 -1.01862H3.80725V-1.2865L3.58511 -1.5119V-1.51191ZM5.20544 -1.02842L5.17276 -0.842216L5.20544 -0.652742L5.40797 -0.842216L5.20544 -1.02842Z" fill="#383739"/>
<path d="M3.58502 -3.23352V-2.94604L4.18611 -2.38415L3.99662 -2.20775L4.39844 -1.83533L4.1567 -1.60993V-1.88107H3.86595V-1.63933L4.62712 -0.930439H4.97993L5.01586 -1.13298H4.75452L5.06813 -1.42699L5.72148 -0.829169L5.06813 -0.231348L4.75452 -0.522091H5.01586L4.97984 -0.727898H4.62703L3.86586 -0.0190098V0.222732H4.15661V-0.0484111L4.39835 0.176997L3.99653 0.54941L4.18602 0.729078L3.58493 1.2877V1.57518L4.49635 0.729078L4.30688 0.549411L4.70543 0.176997L4.36241 -0.143147L4.6303 -0.391422L5.06803 0.016925L5.98601 -0.82917L5.06803 -1.67526L4.6303 -1.26692L4.36241 -1.51519L4.70543 -1.83534L4.30688 -2.20775L4.49635 -2.38416L3.58493 -3.23352L3.58502 -3.23352ZM3.58502 -1.47272V-0.185609L3.78103 -0.381616V-0.665822H4.03256L4.1959 -0.829161L4.03256 -0.992501H3.78103V-1.27671L3.58502 -1.47272V-1.47272ZM5.22493 -0.976167L5.20207 -0.842229L5.22493 -0.708291L5.36867 -0.842229L5.22493 -0.976167Z" fill="#FFC72C"/>
<path d="M13.5767 -3.27271V-2.91009L13.0148 -2.38414L13.2043 -2.20773L12.8025 -1.83532L12.9789 -1.67525V-1.90719H13.3219V-1.62951L12.5477 -0.904287H12.1556L12.1132 -1.1591H12.3386L12.0936 -1.38777L11.4794 -0.829151L12.0936 -0.267265L12.3386 -0.49594H12.1132L12.1556 -0.754015H12.5477L13.3219 -0.0287822V0.248894H12.9789V0.0169531L12.8025 0.177025L13.2043 0.549439L13.0148 0.729107L13.5767 1.25179V1.61441L12.6261 0.729107L12.8155 0.549439L12.417 0.177025L12.76 -0.143119L12.5313 -0.352193L12.0936 0.0528879L11.1331 -0.82914L12.0936 -1.71117L12.5313 -1.30282L12.76 -1.51516L12.417 -1.83531L12.8155 -2.20772L12.6261 -2.38413L13.5767 -3.27269V-3.27271ZM13.5767 -1.51191V-0.146393L13.3545 -0.371801V-0.636406H13.1193L12.9299 -0.829146L13.1193 -1.01862H13.3545V-1.2865L13.5767 -1.5119V-1.51191ZM11.9564 -1.02842L11.989 -0.842216L11.9564 -0.652742L11.7538 -0.842216L11.9564 -1.02842Z" fill="#383739"/>
<path d="M13.5766 -3.23352V-2.94604L12.9755 -2.38415L13.165 -2.20775L12.7632 -1.83533L13.0049 -1.60993V-1.88107H13.2957V-1.63933L12.5345 -0.930439H12.1817L12.1458 -1.13298H12.4071L12.0935 -1.42699L11.4402 -0.829169L12.0935 -0.231348L12.4071 -0.522091H12.1458L12.1818 -0.727898H12.5346L13.2958 -0.0190098V0.222732H13.005V-0.0484111L12.7633 0.176997L13.1651 0.54941L12.9756 0.729078L13.5767 1.2877V1.57518L12.6653 0.729078L12.8548 0.549411L12.4562 0.176997L12.7992 -0.143147L12.5314 -0.391422L12.0936 0.016925L11.1756 -0.82917L12.0936 -1.67526L12.5314 -1.26692L12.7992 -1.51519L12.4562 -1.83534L12.8548 -2.20775L12.6653 -2.38416L13.5767 -3.23352L13.5766 -3.23352ZM13.5766 -1.47272V-0.185609L13.3806 -0.381616V-0.665822H13.1291L12.9657 -0.829161L13.1291 -0.992501H13.3806V-1.27671L13.5766 -1.47272V-1.47272ZM11.9367 -0.976167L11.9596 -0.842229L11.9367 -0.708291L11.793 -0.842229L11.9367 -0.976167Z" fill="#FFC72C"/>
<path d="M4.39554 31.9104C4.44483 32.1205 4.61192 32.2792 4.65174 32.4971C4.73145 32.2699 4.80494 32.0794 4.75006 31.8308C4.7108 31.6529 4.56122 31.5261 4.5439 31.3434C4.38081 31.49 4.3457 31.698 4.39554 31.9104V31.9104ZM4.35421 32.7909C4.49254 32.9806 4.68482 33.126 4.89716 33.223C4.85534 33.0569 4.9338 32.9318 5.02087 32.7999C5.12578 32.6412 5.17693 32.4852 5.09141 32.3024C5.05155 32.3975 4.998 32.4764 4.93517 32.5577C4.84224 32.6845 4.78115 32.7972 4.76682 32.9598C4.65936 32.8801 4.61214 32.7612 4.55467 32.6461C4.46708 32.4813 4.32571 32.3434 4.16333 32.2533C4.20648 32.4383 4.23971 32.6338 4.35421 32.7909L4.35421 32.7909ZM5.13 33.3562C5.10043 33.4615 5.07494 33.566 5.08064 33.6761C4.98923 33.5776 4.86785 33.5035 4.75957 33.4241C4.6121 33.3049 4.44021 33.2207 4.31964 33.0689C4.33763 33.2924 4.43329 33.4746 4.61491 33.6106C4.8069 33.7543 5.03845 33.8316 5.22755 33.9824C5.19924 33.7792 5.27392 33.6163 5.33761 33.4295C5.39068 33.2509 5.33931 33.0696 5.21823 32.9335C5.22004 33.0844 5.17245 33.2139 5.13 33.3562L5.13 33.3562ZM5.56086 34.0429C5.60064 34.1971 5.71115 34.3225 5.7866 34.4601C5.58314 34.397 5.40363 34.2866 5.2197 34.1828C5.00063 34.0635 4.76275 33.9876 4.56444 33.8301C4.66313 34.1955 4.90774 34.4073 5.26559 34.5153C5.51028 34.5892 5.71647 34.5524 6.01337 34.6723C5.97933 34.4714 5.91934 34.2544 5.82431 34.0732C5.75056 33.9421 5.66877 33.8129 5.62322 33.6685C5.55724 33.7871 5.526 33.9077 5.56086 34.0429H5.56086ZM6.30953 34.602C6.37959 34.722 6.47207 34.823 6.58675 34.9027C6.29791 34.9211 6.06548 34.738 5.7839 34.7301C5.60997 34.7252 5.44485 34.7792 5.26748 34.763C5.47797 34.905 5.69834 35.029 5.95461 35.0622C6.28774 35.1052 6.59496 35.0214 6.96247 35.0542C6.79072 34.933 6.7048 34.7708 6.59774 34.5963C6.45833 34.3785 6.32678 34.2232 6.05564 34.1882C6.16447 34.3105 6.22782 34.462 6.30953 34.602V34.602ZM7.33531 35.0814C6.82647 35.1679 6.33888 35.2798 5.8192 35.285C6.4009 35.4878 6.949 35.5244 7.52592 35.3151C7.8377 35.2019 8.07676 35.1413 8.31223 35.1582C8.65635 35.1829 9.07455 35.3187 9.53739 35.8068L9.71931 35.6613C9.05595 35.0702 8.18801 34.9364 7.33534 35.0813L7.33531 35.0814Z" fill="#FFC72C"/>
<path d="M4.83502 3.50923L4.03439 3.01828V1.83808L4.83502 1.34712V0.72264L5.59161 0.267021H6.19607L7.34618 -0.379883H9.8153L10.9655 0.267021H11.5699L12.3265 0.72264V1.34712L13.1271 1.83808L13.1271 3.01828L12.3265 3.50923V4.13371L11.5699 4.58933H10.9655L9.8153 5.23623H7.34618L6.19607 4.58933H5.59161L4.83502 4.13371V3.50923Z" fill="#383739"/>
<path d="M7.3516 -0.352295L6.2017 0.294529H5.60061L4.86231 0.738809V1.36276L4.06195 1.85278V3.00268L4.86231 3.4927V4.11993L5.59734 4.56421H6.2017L7.3516 5.21103H9.80822L10.9581 4.56421H11.5625L12.3008 4.11993V3.4927L13.1011 3.00268V1.85278L12.3008 1.36276V0.738809L11.5625 0.294529H10.9581L9.80822 -0.352295H7.3516H7.3516ZM7.4202 -0.11382H9.74288L10.8928 0.533004H11.4939L12.0525 0.869482V1.49344L12.8561 1.98346V2.87202L12.0525 3.36204V3.98599L11.4939 4.32247H10.8928L9.74288 4.9693H7.4202L6.2703 4.32247H5.66921L5.10733 3.98599V3.36204L4.30696 2.87202V1.98346L5.10733 1.49344V0.869482L5.66921 0.533004H6.2703L7.4202 -0.11382Z" fill="#00843D"/>
<path d="M8.56751 2.44126V-0.0880127H7.42613L6.27595 0.558891H5.67634L5.1339 0.885544V1.5085L4.33331 1.99943V2.41486L8.59399 2.41482V4.94415H9.73537L10.8855 4.29725H11.4852L12.0276 3.9706V3.34767L12.8282 2.85671V2.44128L8.56751 2.44126Z" fill="#FFC72C"/>
<path d="M4.33335 2.44128L4.33331 2.85671L5.13394 3.34767V3.97059L5.67634 4.29725H6.27599L7.42613 4.94415H8.56755V2.41482L12.8282 2.41486V1.99943L12.0276 1.5085V0.885544L11.4852 0.558891H10.8856L9.73541 -0.0880127H8.59403V2.44126L4.33335 2.44128Z" fill="white"/>
<path d="M6.07991 0.79173L5.88281 0.608032L5.68753 0.72845L5.88496 0.912518L5.63147 1.06957H6.18463L6.66135 1.51923L6.81385 1.35818L6.35035 0.920956V0.624167L6.07991 0.79173Z" fill="#383739"/>
<path d="M7.01271 0.711164L6.81562 0.527466L6.62033 0.647884L6.81776 0.831952L6.56427 0.989006H7.11744L7.59415 1.43867L7.74665 1.27762L7.28315 0.840389V0.543601L7.01271 0.711164Z" fill="#383739"/>
<path d="M6.01157 1.31956L5.81448 1.13586L5.61924 1.25628L5.81663 1.44035L5.56317 1.5974H6.11634L6.59301 2.04707L6.74551 1.88602L6.28201 1.44879V1.152L6.01157 1.31956Z" fill="#383739"/>
<path d="M8.58072 -0.114258H8.08157L7.82038 0.137458H7.31121L6.93497 0.332739L7.02271 0.546523L7.35824 0.3703H7.50519L8.01965 0.965284L8.58074 0.623607L8.58072 -0.114258Z" fill="#383739"/>
<path d="M5.87953 0.640991L6.05664 0.806075L5.90824 0.897999L5.73087 0.732655L5.87953 0.640991ZM6.32393 0.671521V0.932229L6.77648 1.35913L6.66028 1.48184L6.19515 1.04306H5.72421L6.32393 0.671523L6.32393 0.671521Z" fill="#D22630"/>
<path d="M6.81245 0.560547L6.98956 0.725631L6.84117 0.817554L6.66383 0.652211L6.81245 0.560547ZM7.25686 0.591077V0.851785L7.7094 1.27869L7.5932 1.4014L7.12807 0.962655H6.65714L7.25686 0.591078L7.25686 0.591077Z" fill="#D22630"/>
<path d="M5.81105 1.16882L5.98813 1.33391L5.83973 1.42583L5.6624 1.26049L5.81105 1.16882ZM6.25542 1.19935V1.46006L6.70797 1.88696L6.59181 2.00967L6.12668 1.57093H5.6557L6.25542 1.19935V1.19935Z" fill="#D22630"/>
<path d="M8.56766 -0.0880127H8.09238L7.83119 0.163703H7.3178L6.96869 0.344885L7.03623 0.509488L7.35181 0.343775H7.51742L8.02514 0.930988L8.56766 0.600634L8.56766 -0.0880127Z" fill="#D22630"/>
<path d="M5.74721 1.62005L5.50922 1.53113L5.50352 1.53509L5.19622 1.74832V1.80564L4.70404 2.42804L5.19622 3.05045V3.10781L5.50922 3.32496L5.74721 3.23604L5.60196 3.13986V2.95686L5.65969 2.88781H5.91758V1.96828H5.65969L5.60196 1.89923V1.71623L5.74721 1.62005Z" fill="#383739"/>
<path d="M5.22269 1.76218L5.51297 1.56079L5.68949 1.62674L5.57558 1.70215V1.90891L5.64737 1.99476H5.89117V2.86152H5.64737L5.57558 2.94737V3.15413L5.68949 3.22954L5.51297 3.29549L5.22269 3.0941L5.22273 3.04137L4.73776 2.42814L5.22273 1.81488L5.22269 1.76218Z" fill="#D22630"/>
<path d="M5.32463 2.95054L5.19063 2.8346V2.77872L4.90317 2.42809L5.19067 2.07742V2.02157L5.32467 1.90563L5.56536 2.10136L5.42643 2.10029L5.63171 2.30863H6.10076L6.46964 2.02017V1.25943H7.39224L8.46371 0.60191V0.429462L8.29985 0.320257H8.24793L8.06949 0.439675L8.04184 0.528749L7.90226 0.338168L8.17355 0.110247H8.21692L8.52307 -0.11438H8.63849L8.94461 0.110247H8.98801L9.25931 0.338168L9.11972 0.528749L9.09208 0.439675L8.91363 0.320257H8.86171L8.69785 0.429462V0.60191L9.76932 1.25943H10.6919V2.02017L11.0608 2.30863H11.5299L11.7351 2.10029L11.5962 2.10136L11.8369 1.90563L11.9709 2.02157V2.07742L12.2584 2.42809L11.9709 2.77872V2.8346L11.8369 2.95054L11.5962 2.75481L11.7351 2.75589L11.5299 2.54751H11.0608L10.6919 2.836V3.59674H9.76932L8.69785 4.25426V4.42671L8.86171 4.53592H8.91363L9.09208 4.4165L9.11972 4.32742L9.25931 4.51797L8.98801 4.74593H8.94461L8.63849 4.97055H8.52307L8.21692 4.74593H8.17355L7.90222 4.51797L8.04184 4.32742L8.06949 4.4165L8.24789 4.53592H8.29981L8.46371 4.42671V4.25426L7.39224 3.59674H6.46964V2.836L6.10072 2.54751H5.63171L5.42643 2.75589L5.56536 2.75481L5.32463 2.95054Z" fill="#383739"/>
<path d="M8.59403 4.5564L8.7113 4.64607L8.59403 4.73573V4.5564V4.5564ZM8.22127 4.71949H8.2256L8.53175 4.94415H8.5675V4.76889L8.40689 4.64607L8.56753 4.52324V4.19404L7.42101 3.49044H6.57346V2.78348L6.13586 2.44124H5.47582L5.30992 2.62883L5.14402 2.44124L4.94815 2.44128L5.21704 2.76923V2.82248L5.32354 2.915L5.49466 2.78177L5.39422 2.78255V2.74924L5.61804 2.5211H6.10985L6.49608 2.82315V3.57034H7.39973L8.49012 4.23948V4.44079L8.30783 4.56228H8.23985L8.04701 4.43321L8.03217 4.38532L7.93813 4.51366L8.18319 4.71949H8.22127V4.71949ZM5.31007 2.2672L5.4407 2.41486H5.1794L5.31007 2.2672ZM8.56757 0.120406L8.45037 0.210071L8.56757 0.2997V0.120406ZM11.7209 2.44128L11.8516 2.58893L11.9822 2.44128H11.7209ZM8.93597 0.136614L8.62981 -0.0880127H8.59407V0.0871742L8.75475 0.210071L8.59403 0.332969V0.662101L9.74055 1.3657H10.5881V2.07266L11.0257 2.41489H11.6856L11.8516 2.22735L12.0175 2.41486H12.2134L11.9445 2.08691V2.03366L11.838 1.94114L11.6669 2.07436L11.7673 2.07355V2.10689L11.5435 2.335H11.0517L10.6655 2.03295V1.2858H9.76183L8.67145 0.616657V0.415307L8.85374 0.293853H8.92172L9.11456 0.42293L9.1294 0.470816L9.22343 0.342479L8.97838 0.136614H8.93597L8.93597 0.136614Z" fill="#FFC72C"/>
<path d="M8.56749 4.73569L8.4503 4.64607L8.56749 4.55644V4.73569ZM5.44063 2.44128L5.31 2.58893L5.17936 2.44128H5.44063ZM8.94022 4.71949H8.93589L8.62974 4.94415H8.59399V4.89826V4.76896L8.75467 4.64607L8.59395 4.52317V4.19404L9.74048 3.49044H10.588V2.78348L11.0256 2.44124H11.6856L11.8515 2.62883L12.0174 2.44124L12.2133 2.44128L11.9445 2.76923V2.82248L11.8379 2.91499L11.6668 2.78177L11.7673 2.78255V2.74924L11.5435 2.5211H11.0516L10.6654 2.82315V3.57034H9.76176L8.67137 4.23948V4.44079L8.85366 4.56228H8.92164L9.11448 4.43321L9.12932 4.38532L9.22335 4.51366L8.9783 4.71949H8.94022V4.71949ZM11.8515 2.2672L11.7209 2.41486H11.9822L11.8515 2.2672ZM8.2256 0.136614L8.53175 -0.0880127H8.56753V0.0871741L8.40681 0.210071L8.56753 0.332969L8.56757 0.662101L7.42101 1.3657H6.5735V2.07266L6.13586 2.41489H5.47575L5.30985 2.22735L5.14391 2.41486H4.94815L5.21707 2.08691V2.03366L5.32358 1.94114L5.49466 2.07436L5.39422 2.07355V2.10689L5.61807 2.335H6.10985L6.49608 2.03295V1.2858H7.39973L8.49015 0.616657V0.415307L8.30786 0.293853H8.23984L8.04701 0.42293L8.03217 0.470816L7.93817 0.342479L8.18322 0.136614H8.2256L8.2256 0.136614ZM8.59396 0.299737L8.71123 0.210071L8.59396 0.120406V0.299737Z" fill="white"/>
<path d="M8.56753 2.44134V0.693115L7.42845 1.39216H6.59984V2.08558L6.17871 2.41493L8.59399 2.41489V4.16314L9.733 3.46413H10.5616V2.77071L10.9827 2.44136L8.56753 2.44134Z" fill="#00843D"/>
<path d="M6.17871 2.44132L6.59988 2.77068V3.4641H7.42844L8.56757 4.16314V2.41486L10.9828 2.4149L10.5616 2.08554V1.39212H9.73304L8.59403 0.693115V2.4413L6.17871 2.44132Z" fill="#D22630"/>
<path d="M7.35481 1.58018L7.15775 1.39648L6.96247 1.51687L7.15989 1.70093L6.9064 1.85799H7.45957L7.93628 2.30769L8.08878 2.1466L7.62528 1.70937V1.41262L7.35481 1.58018Z" fill="#383739"/>
<path d="M9.80666 3.27609L10.0038 3.45979L10.199 3.33937L10.0016 3.1553L10.2551 2.99828H9.7019L9.22523 2.54858L9.07272 2.70963L9.53622 3.1469V3.44365L9.80666 3.27609Z" fill="#383739"/>
<path d="M7.35481 3.27609L7.15771 3.45979L6.96247 3.33937L7.15986 3.1553L6.9064 2.99828H7.45957L7.93624 2.54858L8.08875 2.70963L7.62525 3.1469V3.44365L7.35481 3.27609Z" fill="#383739"/>
<path d="M9.80666 1.58018L10.0038 1.39648L10.199 1.51687L10.0016 1.70093L10.2551 1.85799H9.7019L9.22523 2.30769L9.07272 2.1466L9.53622 1.70937V1.41262L9.80666 1.58018Z" fill="#383739"/>
<path d="M10.007 3.42663L9.82995 3.26155L9.97834 3.16962L10.1557 3.33497L10.007 3.42663ZM9.56265 3.3961V3.13543L9.1101 2.70853L9.2263 2.58578L9.69143 3.02456H10.1624L9.56265 3.3961L9.56265 3.3961ZM7.15437 1.42944L7.33148 1.59453L7.18305 1.68649L7.00572 1.52114L7.15437 1.42944ZM7.59877 1.46001V1.72068L8.05132 2.14758L7.93512 2.27033L7.46999 1.83155H6.99905L7.59878 1.46001L7.59877 1.46001Z" fill="#D22630"/>
<path d="M10.0071 1.42944L9.82998 1.59453L9.97838 1.68649L10.1557 1.52114L10.0071 1.42944ZM9.56269 1.46001V1.72068L9.11014 2.14758L9.22634 2.27033L9.69147 1.83155H10.1624L9.56269 1.46001L9.56269 1.46001ZM7.15441 3.42663L7.33148 3.26155L7.18308 3.16962L7.00575 3.33497L7.15441 3.42663ZM7.59877 3.3961V3.13543L8.05132 2.70853L7.93516 2.58578L7.47003 3.02456H6.99905L7.59878 3.3961L7.59877 3.3961Z" fill="#00843D"/>
<path d="M9.80573 2.42817L8.58089 3.24447L7.35605 2.42817L8.58089 1.61182L9.80573 2.42817Z" fill="#383739"/>
<path d="M8.56763 1.65247L7.42344 2.41505H9.73828L8.59409 1.65247V3.20406L9.73832 2.44147H7.4234L8.56763 3.20406V1.65247Z" fill="white"/>
<path d="M8.90842 2.70875V2.93319H8.25338V2.70875H7.82944V2.14729H8.25338V1.92285H8.90842V2.14729H9.33233V2.70875H8.90842Z" fill="#383739"/>
<path d="M8.27983 1.94946V2.17391H7.85593V2.41504H8.5677V1.94946H8.27983L8.27983 1.94946ZM8.59416 2.41504H9.30594V2.17391H8.88203V1.94947H8.59416V2.41504L8.59416 2.41504ZM7.85593 2.44146V2.68259H8.27983V2.90703H8.5677V2.44146H7.85593V2.44146ZM8.59416 2.90704H8.88203V2.68259H9.30594V2.44146H8.59416V2.90704V2.90704Z" fill="#D22630"/>
<path d="M10.6704 11.7288V11.3692H11.6565V11.0096H12.6426V7.76041H11.6565V7.40082H10.6704V7.04123H9.68432V6.68164H7.47738V7.04123H6.49128V7.40082H5.50514V7.76041H4.51904V11.0096H5.50514V11.3692H6.49128V11.7288H7.47738V12.0884H9.68432V11.7288H10.6704Z" fill="#383739"/>
<path d="M7.50515 6.7074V7.06673H6.51854V7.42609H5.53199V7.78542H4.54541V10.9836H5.53199V11.343H6.51854V11.7023H7.50515V12.0616H9.65788V11.7023H10.6445V11.343H11.6311V10.9836H12.6176V7.78542H11.6311V7.42609H10.6445V7.06673H9.65788V6.7074H7.50515ZM7.76649 6.96874H9.39653V7.32808H10.3832V7.68743H11.3698V8.04677H12.3563V10.7223H11.3698V11.0817H10.3832V11.441H9.39653V11.8002H7.76649V11.441H6.77989V11.0817H5.79333V10.7223H4.80675V8.04677H5.79333V7.68743H6.77989V7.32808H7.76649V6.96874Z" fill="#FFC72C"/>
<path d="M6.80531 11.4149V11.0553H5.81921V10.6957H4.83307V8.07446H5.81921V7.71487H6.80531V7.35528H7.79141V6.99573H9.37039V7.35528H10.3565V7.71487H11.3426V8.07446H12.3287V10.6957H11.3426V11.0553H10.3565V11.4149H9.37039V11.7745H7.79141V11.4149H6.80531Z" fill="#D22630"/>
<path d="M7.03421 7.62156L6.7788 7.4285V7.79923L6.53422 7.95465L6.53359 7.72259L6.29901 7.9333L6.06443 7.72259L6.0638 7.95465L5.79277 7.78242V8.12614L5.57373 8.28471L5.57311 8.07396L5.31289 8.26243L5.05266 8.07396L5.05204 8.28471L4.80658 8.107V9.14821H4.51904V9.62215H4.80658V10.6633L5.05204 10.4856L5.05266 10.6964L5.31289 10.5079L5.57308 10.6964L5.5737 10.4856L5.79274 10.6442V10.9879L6.06378 10.8157L6.06441 11.0478L6.29899 10.8371L6.53357 11.0478L6.5342 10.8157L6.77877 10.9711V11.3419L7.03419 11.1488L7.03474 11.4077L7.28505 11.1839L7.5354 11.4077L7.53595 11.1488L7.76495 11.3219V11.7173L8.10733 11.4052V11.7719L8.58086 11.4675L9.05442 11.7719V11.4052L9.3968 11.7173V11.3219L9.62576 11.1488L9.62632 11.4077L9.87666 11.1839L10.127 11.4077L10.1276 11.1488L10.3829 11.3419V10.9711L10.6276 10.8157L10.6282 11.0478L10.8628 10.8371L11.0974 11.0478L11.098 10.8157L11.3691 10.9879V10.6442L11.5881 10.4856L11.5887 10.6964L11.8489 10.5079L12.1091 10.6964L12.1097 10.4856L12.3552 10.6633V9.62215H12.6427V9.14821H12.3552V8.107L12.1097 8.28471L12.1091 8.07396L11.8489 8.26243L11.5887 8.07396L11.5881 8.28471L11.3691 8.12614V7.78242L11.098 7.95465L11.0974 7.72259L10.8628 7.9333L10.6282 7.72259L10.6276 7.95465L10.3829 7.79919V7.4285L10.1276 7.62152L10.127 7.36259L9.87669 7.58648L9.62634 7.36259L9.62579 7.62156L9.39683 7.44841V7.05307L9.05445 7.36514V6.99841L8.58088 7.30286L8.10735 6.99841V7.36514L7.76497 7.05307V7.44844L7.53598 7.62156L7.53542 7.36259L7.28508 7.58648L7.03477 7.36259L7.03421 7.62156Z" fill="#383739"/>
<path d="M5.07833 8.33615L5.07895 8.12537L5.31286 8.29482L5.32074 8.28908L5.54678 8.12537L5.54739 8.33615L5.79274 8.15856V10.6113L5.54739 10.4337L5.54678 10.6445L5.31286 10.4751L5.07895 10.6445L5.07833 10.4337L4.83298 10.6113V9.59547H4.54544V9.17442H4.83298V8.15856L5.07833 8.33615Z" fill="#00843D"/>
<path d="M7.06115 7.42151L7.28519 7.62186L7.50922 7.42151L7.50978 7.67452L7.76504 7.48153V11.2887L7.50978 11.0957L7.50922 11.3487L7.28519 11.1484L7.06115 11.3487L7.06066 11.0957L6.80539 11.2887V7.48153L7.06066 7.67452L7.06115 7.42151Z" fill="#00843D"/>
<path d="M10.1007 7.42151L9.8767 7.62186L9.65267 7.42151L9.65211 7.67452L9.39688 7.48153V11.2887L9.65211 11.0957L9.65267 11.3487L9.8767 11.1484L10.1007 11.3487L10.1013 11.0957L10.3566 11.2887V7.48153L10.1013 7.67452L10.1007 7.42151Z" fill="#00843D"/>
<path d="M12.0835 8.33615L12.0829 8.12537L11.849 8.29482L11.841 8.28908L11.615 8.12537L11.6144 8.33615L11.3691 8.15856V10.6113L11.6144 10.4337L11.615 10.6445L11.849 10.4751L12.0829 10.6445L12.0835 10.4337L12.3288 10.6113V9.59547H12.6163V9.17442H12.3288V8.15856L12.0835 8.33615Z" fill="#00843D"/>
<path d="M6.09069 7.78186L6.299 7.969L6.50731 7.78186L6.50792 8.00286L6.77884 7.83067V10.94L6.50792 10.7678L6.50731 10.9888L6.299 10.8017L6.09069 10.9888L6.09008 10.7678L5.81915 10.94V7.83067L6.09008 8.00286L6.09069 7.78186Z" fill="#FFC72C"/>
<path d="M8.1337 7.42516L7.79132 7.11309V11.6576L8.1337 11.3455V11.7237L8.58077 11.4363H8.58081H8.58085L9.02792 11.7237V11.3455L9.3703 11.6576V7.11309L9.02792 7.42516V7.047L8.58085 7.33442H8.58081H8.58077L8.1337 7.047V7.42516Z" fill="#FFC72C"/>
<path d="M11.0711 7.78186L10.8628 7.969L10.6544 7.78186L10.6539 8.00286L10.3829 7.83067V10.94L10.6539 10.7678L10.6544 10.9888L10.8628 10.8017L11.0711 10.9888L11.0717 10.7678L11.3426 10.94V7.83067L11.0717 8.00286L11.0711 7.78186Z" fill="#FFC72C"/>
<path d="M5.20656 8.93815C5.2365 8.96835 5.27228 8.98363 5.31291 8.98363C5.35351 8.98363 5.38929 8.96835 5.41927 8.93815C5.51293 8.84379 5.51608 8.67312 5.51515 8.55029C5.51515 8.55029 5.40687 8.66472 5.38733 8.68537C5.37371 8.66183 5.31291 8.55684 5.31291 8.55684C5.31291 8.55684 5.25211 8.66183 5.23846 8.68537C5.21892 8.66472 5.11064 8.55029 5.11064 8.55029C5.10971 8.67312 5.1129 8.84379 5.20656 8.93815V8.93815Z" fill="#383739"/>
<path d="M6.23515 8.67404L6.15625 8.59522V8.43816L5.97507 8.6061L6.29894 8.92998L6.62282 8.6061L6.44164 8.43816V8.59522L6.36278 8.67404V8.39579L6.50248 8.27585L6.29894 8.10107L6.09541 8.27585L6.23515 8.39579V8.67404Z" fill="#383739"/>
<path d="M7.2211 8.36191L7.14224 8.28305V8.12599L6.96106 8.29393L7.28494 8.6178L7.60881 8.29393L7.42763 8.12599V8.28305L7.34873 8.36191V8.08362L7.48847 7.96368L7.28494 7.78894L7.0814 7.96368L7.2211 8.08362V8.36191Z" fill="#383739"/>
<path d="M5.31298 8.60986C5.32915 8.63777 5.38225 8.7295 5.38225 8.7295C5.38225 8.7295 5.45708 8.65038 5.48764 8.61815C5.48398 8.75685 5.45352 8.86643 5.40057 8.91975C5.37574 8.94477 5.34628 8.95746 5.31298 8.95746C5.27963 8.95746 5.25018 8.94477 5.22538 8.91979C5.17243 8.86643 5.14197 8.75685 5.13831 8.61815C5.16884 8.65042 5.24366 8.7295 5.24366 8.7295C5.26675 8.68961 5.28988 8.64972 5.31298 8.60986V8.60986Z" fill="white"/>
<path d="M7.3225 8.07157V8.42579L7.45425 8.29409V8.18662L7.57089 8.29476L7.28513 8.58052L6.99933 8.29476L7.11597 8.18662V8.29409L7.24771 8.42579V8.07157L7.12215 7.96377L7.28513 7.82385L7.44806 7.96377L7.3225 8.07157Z" fill="white"/>
<path d="M6.33642 8.38358V8.73781L6.46816 8.60606V8.49863L6.5848 8.60673L6.29901 8.89253L6.01324 8.60673L6.12989 8.49863V8.60606L6.26163 8.73781V8.38358L6.13607 8.27578L6.29901 8.13586L6.46198 8.27578L6.33642 8.38358Z" fill="#D22630"/>
<path d="M8.96849 8.48002L8.86239 8.33341L9.13446 8.08224L8.88078 7.87383V8.02148L8.77469 8.11226V7.84444L9.01434 7.66781L8.58081 7.34827L8.14728 7.66781L8.38697 7.84444V8.11226L8.28087 8.02148V7.87383L8.02716 8.08224L8.29927 8.33341L8.19317 8.48002H8.96849Z" fill="#383739"/>
<path d="M8.2449 8.45382L8.33438 8.33011L8.06738 8.08365L8.25437 7.93V8.03388L8.41335 8.16991V7.8313L8.1918 7.66803L8.58077 7.38135L8.96974 7.66803L8.74822 7.8313V8.16991L8.90716 8.03388V7.93L9.09419 8.08365L8.82719 8.33011L8.91671 8.45382H8.2449Z" fill="#D22630"/>
<path d="M8.38266 7.668L8.58075 7.81399L8.77888 7.668L8.58075 7.52197L8.57291 7.52778L8.38266 7.668Z" fill="#383739"/>
<path d="M8.58088 7.55493C8.59398 7.56455 8.71129 7.65103 8.73445 7.66809C8.71129 7.68515 8.59398 7.77164 8.58088 7.78126C8.56781 7.77164 8.45047 7.68515 8.42734 7.66809C8.45047 7.65103 8.56781 7.56455 8.58088 7.55493Z" fill="#00843D"/>
<path d="M12.0905 9.2335H11.6565V9.0605H10.3297L9.40619 8.45386H9.40226H7.75542L6.83189 9.0605H5.50515V9.2335H5.07111V9.5368H5.50515V9.70981H6.83189L7.75542 10.3165H9.40619L10.3297 9.70981H11.6565V9.5368H12.0905V9.2335Z" fill="#383739"/>
<path d="M7.76329 8.48132L6.83879 9.08568H5.53208V9.25882H5.0976V9.51036H5.53208V9.6835H6.83879L7.76329 10.2911H9.39994L10.3212 9.6835H11.6311V9.51036H12.0656V9.25882H11.6311V9.08568H10.3212L9.39994 8.48132H7.76329ZM7.78289 8.56953H9.37708L10.2232 9.12488V9.20981H11.1673V9.56263H10.2232V9.64756L9.37708 10.1996H7.78289L6.94006 9.64756V9.56263H5.99269V9.20981H6.94006V9.12488L7.78289 8.56953Z" fill="#D22630"/>
<path d="M9.37049 8.5968L10.1956 9.13853V9.23468H11.1413V9.53568H10.1956V9.63186L9.37049 10.1736H7.79129L6.96612 9.63186V9.53568H6.02051V9.23468H6.96612V9.13853L7.79129 8.5968H9.37049Z" fill="#D22630"/>
<path d="M7.38153 9.69281L7.73883 9.96103L7.97385 9.78455L7.83723 9.68197L7.73883 9.75587L7.65482 9.69281L9.00033 8.68262H8.72707L7.38153 9.69281ZM8.16144 10.0876H8.43469L9.78023 9.0774L9.42297 8.80921L9.18791 8.98566L9.32454 9.0882L9.42297 9.0143L9.50698 9.0774L8.16144 10.0876ZM8.72707 10.0876H9.00029L7.65482 9.0774L7.73882 9.0143L7.83722 9.0882L7.97385 8.98566L7.73882 8.80921L7.38153 9.0774L8.72707 10.0876ZM9.50698 9.69281L9.42297 9.75587L9.32454 9.68197L9.18791 9.78455L9.42297 9.96103L9.78023 9.69281L8.43469 8.68262H8.16143L9.50698 9.69281Z" fill="#383739"/>
<path d="M7.1109 9.38508L7.35103 9.54458L7.59117 9.38508L7.35103 9.22559L7.1109 9.38508Z" fill="#383739"/>
<path d="M8.34082 9.38508L8.58095 9.54458L8.82108 9.38508L8.58095 9.22559L8.34082 9.38508Z" fill="#383739"/>
<path d="M10.0509 9.38508L9.81075 9.54458L9.57062 9.38508L9.81075 9.22559L10.0509 9.38508Z" fill="#383739"/>
<path d="M9.73619 9.69296L9.42297 9.92814L9.23191 9.7847L9.32454 9.71517L9.42297 9.78907L9.55098 9.69296L8.24066 8.70923H8.42588L9.73619 9.69296ZM8.92106 10.0613H8.73588L7.42557 9.07755L7.73882 8.84238L7.92981 8.98581L7.83722 9.05531L7.73882 8.98141L7.61078 9.07755L8.92106 10.0613ZM8.42588 10.0613H8.24066L9.55098 9.07755L9.42297 8.98141L9.32454 9.05531L9.23191 8.98581L9.42297 8.84238L9.73619 9.07755L8.42588 10.0613ZM8.73588 8.70923H8.92106L7.61078 9.69296L7.73882 9.78907L7.83722 9.71517L7.92981 9.7847L7.73882 9.92814L7.42557 9.69296L8.73588 8.70923Z" fill="#FFC72C"/>
<path d="M7.35093 9.25745L7.54328 9.38519L7.35093 9.51294L7.15857 9.38519L7.35093 9.25745Z" fill="#00843D"/>
<path d="M8.5809 9.25745L8.77326 9.38519L8.5809 9.51294L8.38858 9.38519L8.5809 9.25745Z" fill="#00843D"/>
<path d="M9.81083 9.25745L9.61847 9.38519L9.81083 9.51294L10.0031 9.38519L9.81083 9.25745Z" fill="#00843D"/>
<path d="M4.35704 16.0795L4.26282 16.2128L4.43172 16.3419L4.26279 16.4711L4.357 16.6044L4.55325 16.6272L4.74327 16.4803L5.21706 16.7813V16.5314L4.91887 16.3419L5.21706 16.1525V15.9026L4.74327 16.2036L4.55325 16.0568L4.35704 16.0795Z" fill="#383739"/>
<path d="M4.35704 15.2113L4.26282 15.3446L4.43172 15.4738L4.26279 15.6029L4.357 15.7362L4.55325 15.759L4.74327 15.6122L5.21706 15.9132V15.6632L4.91887 15.4738L5.21706 15.2844V15.0344L4.74327 15.3354L4.55325 15.1886L4.35704 15.2113Z" fill="#383739"/>
<path d="M4.35704 17.4728L4.26282 17.3395L4.43172 17.2104L4.26279 17.0812L4.357 16.9479L4.55325 16.9252L4.74327 17.072L5.21706 16.771V17.0209L4.91887 17.2104L5.21706 17.3998V17.6497L4.74327 17.3487L4.55325 17.4956L4.35704 17.4728Z" fill="#383739"/>
<path d="M12.8048 16.0795L12.899 16.2128L12.7301 16.3419L12.899 16.4711L12.8048 16.6044L12.6086 16.6272L12.4186 16.4803L11.9448 16.7813V16.5314L12.243 16.3419L11.9448 16.1525V15.9026L12.4186 16.2036L12.6086 16.0568L12.8048 16.0795Z" fill="#383739"/>
<path d="M12.8048 15.2113L12.899 15.3446L12.7301 15.4738L12.899 15.6029L12.8048 15.7362L12.6086 15.759L12.4186 15.6122L11.9448 15.9132V15.6632L12.243 15.4738L11.9448 15.2844V15.0344L12.4186 15.3354L12.6086 15.1886L12.8048 15.2113Z" fill="#383739"/>
<path d="M12.8048 17.4728L12.899 17.3395L12.7301 17.2104L12.899 17.0812L12.8048 16.9479L12.6086 16.9252L12.4186 17.072L11.9448 16.771V17.0209L12.243 17.2104L11.9448 17.3998V17.6497L12.4186 17.3487L12.6086 17.4956L12.8048 17.4728Z" fill="#383739"/>
<path d="M10.9078 13.7098V14.071H11.1705V14.2306H11.4286V13.94H11.1984V13.7098H10.9078Z" fill="#383739"/>
<path d="M11.6823 14.2793V14.6404H11.9448V14.8001H12.2031V14.5094H11.973V14.2793H11.6823Z" fill="#383739"/>
<path d="M6.25388 13.7098V14.071H5.9911V14.2306H5.73309V13.94H5.96323V13.7098H6.25388Z" fill="#383739"/>
<path d="M10.9078 18.974V18.6129H11.1705V18.4532H11.4286V18.7439H11.1984V18.974H10.9078Z" fill="#383739"/>
<path d="M6.25388 18.974V18.6129H5.9911V18.4532H5.73309V18.7439H5.96323V18.974H6.25388Z" fill="#383739"/>
<path d="M11.6823 18.4046V18.0434H11.9448V17.8838H12.2031V18.1744H11.973V18.4046H11.6823Z" fill="#383739"/>
<path d="M5.47947 14.2793V14.6404H5.21695V14.8001H4.95868V14.5094H5.18882V14.2793H5.47947Z" fill="#383739"/>
<path d="M5.47947 18.4046V18.0434H5.21695V17.8838H4.95868V18.1744H5.18882V18.4046H5.47947Z" fill="#383739"/>
<path d="M9.55244 13.7015C9.53568 13.6852 9.35194 13.5068 9.35194 13.5068L9.15499 13.6893C9.15499 13.6893 9.30931 13.8391 9.32666 13.856L9.10507 14.0711H9.43406L9.55244 13.9561L9.67082 14.0711H9.99977L9.77818 13.856C9.79553 13.8391 9.94981 13.6893 9.94981 13.6893L9.7529 13.5068C9.68599 13.5716 9.61924 13.6366 9.55244 13.7015Z" fill="#383739"/>
<path d="M8.58087 13.7015C8.56415 13.6852 8.38041 13.5068 8.38041 13.5068L8.18347 13.6893C8.18347 13.6893 8.33774 13.8391 8.35514 13.856L8.13354 14.0711H8.46249L8.58087 13.9561L8.69926 14.0711H9.0282L8.80665 13.856C8.824 13.8391 8.97828 13.6893 8.97828 13.6893L8.78137 13.5068C8.71447 13.5716 8.64771 13.6366 8.58087 13.7015V13.7015Z" fill="#383739"/>
<path d="M7.60916 13.7015C7.62593 13.6852 7.80966 13.5068 7.80966 13.5068L8.00661 13.6893C8.00661 13.6893 7.85229 13.8391 7.83494 13.856L8.05653 14.0711H7.72755L7.60916 13.9561L7.49078 14.0711H7.16183L7.38343 13.856C7.36607 13.8391 7.21176 13.6893 7.21176 13.6893L7.4087 13.5068C7.47561 13.5716 7.54237 13.6366 7.60916 13.7015Z" fill="#383739"/>
<path d="M9.55244 18.9824C9.53568 18.9986 9.35194 19.177 9.35194 19.177L9.15499 18.9945C9.15499 18.9945 9.30931 18.8448 9.32666 18.8279L9.10507 18.6128H9.43406L9.55244 18.7277L9.67082 18.6128H9.99977L9.77818 18.8279C9.79553 18.8448 9.94981 18.9945 9.94981 18.9945L9.7529 19.177C9.68599 19.1122 9.61924 19.0472 9.55244 18.9824Z" fill="#383739"/>
<path d="M8.58087 18.9824C8.56415 18.9986 8.38041 19.177 8.38041 19.177L8.18347 18.9945C8.18347 18.9945 8.33774 18.8448 8.35514 18.8279L8.13354 18.6128H8.46249L8.58087 18.7277L8.69926 18.6128H9.0282L8.80665 18.8279C8.824 18.8448 8.97828 18.9945 8.97828 18.9945L8.78137 19.177C8.71447 19.1122 8.64771 19.0472 8.58087 18.9824V18.9824Z" fill="#383739"/>
<path d="M7.60916 18.9824C7.62593 18.9986 7.80966 19.177 7.80966 19.177L8.00661 18.9945C8.00661 18.9945 7.85229 18.8448 7.83494 18.8279L8.05653 18.6128H7.72755L7.60916 18.7277L7.49078 18.6128H7.16183L7.38343 18.8279C7.36607 18.8448 7.21176 18.9945 7.21176 18.9945L7.4087 19.177C7.47561 19.1122 7.54237 19.0472 7.60916 18.9824Z" fill="#383739"/>
<path d="M5.19047 16.5459V16.7332L4.74159 16.448L4.54542 16.5997L4.3716 16.5795L4.29892 16.4767L4.47507 16.3419L4.29892 16.2072L4.37164 16.1044L4.54542 16.0842L4.74159 16.2358L5.19047 15.9507V16.138L4.86937 16.3419L5.19047 16.5459Z" fill="#00843D"/>
<path d="M5.19047 15.6781V15.8654L4.74159 15.5802L4.54542 15.7318L4.3716 15.7117L4.29892 15.6088L4.47507 15.4741L4.29892 15.3394L4.37164 15.2366L4.54542 15.2164L4.74159 15.368L5.19047 15.0829V15.2702L4.86937 15.4741L5.19047 15.6781Z" fill="#00843D"/>
<path d="M5.19047 17.0066V16.8193L4.74159 17.1045L4.54542 16.9529L4.3716 16.973L4.29892 17.0759L4.47507 17.2106L4.29892 17.3453L4.37164 17.4481L4.54542 17.4683L4.74159 17.3167L5.19047 17.6018V17.4145L4.86937 17.2106L5.19047 17.0066Z" fill="#00843D"/>
<path d="M11.971 16.5459V16.7332L12.4199 16.448L12.616 16.5997L12.7898 16.5795L12.8625 16.4767L12.6864 16.3419L12.8625 16.2072L12.7898 16.1044L12.616 16.0842L12.4199 16.2358L11.971 15.9507V16.138L12.2921 16.3419L11.971 16.5459Z" fill="#00843D"/>
<path d="M11.971 15.6781V15.8654L12.4199 15.5802L12.616 15.7318L12.7898 15.7117L12.8625 15.6088L12.6864 15.4741L12.8625 15.3394L12.7898 15.2366L12.616 15.2164L12.4199 15.368L11.971 15.0829V15.2702L12.2921 15.4741L11.971 15.6781Z" fill="#00843D"/>
<path d="M11.971 17.0066V16.8193L12.4199 17.1045L12.616 16.9529L12.7898 16.973L12.8625 17.0759L12.6864 17.2106L12.8625 17.3453L12.7898 17.4481L12.616 17.4683L12.4199 17.3167L11.971 17.6018V17.4145L12.2921 17.2106L11.971 17.0066Z" fill="#00843D"/>
<path d="M11.172 13.7366V13.9668H11.4022V14.2045H11.197V14.0449H10.9343V13.7366H11.172Z" fill="#00843D"/>
<path d="M11.9464 14.3062V14.5363H12.1765V14.7741H11.9713V14.6145H11.7086V14.3062H11.9464Z" fill="#00843D"/>
<path d="M5.9896 13.7366V13.9668H5.75946V14.2045H5.96466V14.0449H6.22737V13.7366H5.9896Z" fill="#00843D"/>
<path d="M11.172 18.9478V18.7176H11.4022V18.4799H11.197V18.6395H10.9343V18.9478H11.172Z" fill="#00843D"/>
<path d="M5.98964 18.9478V18.7176H5.75946V18.4799H5.96466V18.6395H6.2274V18.9478H5.98964Z" fill="#00843D"/>
<path d="M11.9464 18.3783V18.1482H12.1765V17.9104H11.9713V18.07H11.7086V18.3783H11.9464Z" fill="#00843D"/>
<path d="M5.21519 14.3062V14.5363H4.98505V14.7741H5.19025V14.6145H5.45295V14.3062H5.21519Z" fill="#00843D"/>
<path d="M5.21522 18.3783V18.1482H4.98505V17.9104H5.19024V18.07H5.45299V18.3783H5.21522Z" fill="#00843D"/>
<path d="M9.35164 13.5435C9.36803 13.5594 9.55254 13.7385 9.55254 13.7385C9.55254 13.7385 9.73702 13.5594 9.75341 13.5435C9.76895 13.5578 9.89437 13.674 9.91154 13.6899C9.89378 13.7071 9.74031 13.8561 9.74031 13.8561L9.93467 14.0448H9.68166L9.55254 13.9194L9.42339 14.0448H9.17038L9.36474 13.8561C9.36474 13.8561 9.21127 13.7071 9.19351 13.6899C9.21068 13.674 9.33609 13.5578 9.35164 13.5435V13.5435Z" fill="#00843D"/>
<path d="M8.37993 13.5435C8.39633 13.5594 8.5808 13.7385 8.5808 13.7385C8.5808 13.7385 8.76528 13.5594 8.78171 13.5435C8.79725 13.5578 8.92263 13.674 8.9398 13.6899C8.92207 13.7071 8.76861 13.8561 8.76861 13.8561L8.96296 14.0448H8.70992L8.5808 13.9194L8.45169 14.0448H8.19864L8.393 13.8561C8.393 13.8561 8.23953 13.7071 8.2218 13.6899C8.23898 13.674 8.36439 13.5578 8.37993 13.5435V13.5435Z" fill="#00843D"/>
<path d="M7.81002 13.5435C7.79359 13.5594 7.60911 13.7385 7.60911 13.7385C7.60911 13.7385 7.42464 13.5594 7.40825 13.5435C7.3927 13.5578 7.26729 13.674 7.25012 13.6899C7.26788 13.7071 7.42135 13.8561 7.42135 13.8561L7.22699 14.0448H7.48L7.60911 13.9194L7.73827 14.0448H7.99128L7.79692 13.8561C7.79692 13.8561 7.95038 13.7071 7.96815 13.6899C7.95098 13.674 7.82556 13.5578 7.81002 13.5435V13.5435Z" fill="#00843D"/>
<path d="M9.35164 19.141C9.36803 19.1251 9.55254 18.9459 9.55254 18.9459C9.55254 18.9459 9.73702 19.1251 9.75341 19.141C9.76895 19.1266 9.89437 19.0104 9.91154 18.9945C9.89378 18.9773 9.74031 18.8283 9.74031 18.8283L9.93467 18.6396H9.68166L9.55254 18.765L9.42339 18.6396H9.17038L9.36474 18.8283C9.36474 18.8283 9.21127 18.9773 9.19351 18.9945C9.21068 19.0104 9.33609 19.1266 9.35164 19.141V19.141Z" fill="#00843D"/>
<path d="M8.37993 19.141C8.39633 19.1251 8.5808 18.9459 8.5808 18.9459C8.5808 18.9459 8.76528 19.1251 8.78171 19.141C8.79725 19.1266 8.92263 19.0104 8.9398 18.9945C8.92207 18.9773 8.76861 18.8283 8.76861 18.8283L8.96296 18.6396H8.70992L8.5808 18.765L8.45169 18.6396H8.19864L8.393 18.8283C8.393 18.8283 8.23953 18.9773 8.2218 18.9945C8.23898 19.0104 8.36439 19.1266 8.37993 19.141V19.141Z" fill="#00843D"/>
<path d="M7.81002 19.141C7.79359 19.1251 7.60911 18.9459 7.60911 18.9459C7.60911 18.9459 7.42464 19.1251 7.40825 19.141C7.3927 19.1266 7.26729 19.0104 7.25012 18.9945C7.26788 18.9773 7.42135 18.8283 7.42135 18.8283L7.22699 18.6396H7.48L7.60911 18.765L7.73827 18.6396H7.99128L7.79692 18.8283C7.79692 18.8283 7.95038 18.9773 7.96815 18.9945C7.95098 19.0104 7.82556 19.1266 7.81002 19.141V19.141Z" fill="#00843D"/>
<path d="M5.96458 18.0699V18.6394H11.197V18.0699H11.9711V14.6142H11.197V14.0447H5.96458V14.6142H5.19049V18.0699H5.96458Z" fill="#383739"/>
<path d="M5.99279 14.0707V14.6392H5.21857V18.0431H5.99279V18.6116H11.1706V18.0431H11.9449V14.6392H11.1706V14.0707H5.99278L5.99279 14.0707ZM6.326 14.2896H10.8375V14.8384L11.0236 14.9757H11.726V17.71H11.0204L10.8375 17.8439V18.3959H6.32601V17.8471L6.1398 17.71H5.43417V14.9757H6.13654L6.32601 14.8384V14.2896H6.326Z" fill="#FFC72C"/>
<path d="M6.35202 14.3158V14.8189L7.03152 14.3158H6.35202ZM10.1284 14.3158L10.8079 14.8189V14.3158H10.1284ZM5.46346 15.0019V15.4723L6.10375 15.0019H5.46351H5.46346ZM11.0562 15.0019L11.6998 15.4755V15.0019H11.0562ZM11.6998 17.2069L11.0562 17.6839H11.6998V17.2069ZM5.46344 17.2101V17.6839H6.10373L5.46344 17.2101ZM6.35201 17.8668V18.3666H7.02822L6.35201 17.8668ZM10.8078 17.8668L10.1317 18.3666H10.8078V17.8668Z" fill="#D22630"/>
<path d="M10.0844 14.3162C10.0914 14.3213 11.689 15.5012 11.6996 15.5091V17.175C11.689 17.1829 10.0914 18.3628 10.0844 18.368H7.07708C7.07015 18.3628 5.47257 17.1829 5.46194 17.175V15.5091C5.47257 15.5012 7.07016 14.3213 7.07708 14.3162H10.0844Z" fill="#00843D"/>
<path d="M5.84668 17.3668L5.66098 17.1513L5.83532 16.949L5.66098 16.7467L5.83532 16.5444L5.66098 16.3421L5.83532 16.1398L5.66098 15.9375L5.83528 15.7352L5.66098 15.5329L5.84668 15.3174H11.315L11.5007 15.5329L11.3264 15.7352L11.5007 15.9375L11.3264 16.1398L11.5007 16.3421L11.3264 16.5444L11.5007 16.7467L11.3264 16.949L11.5007 17.1513L11.315 17.3668H5.84668ZM9.60561 14.5768L9.39008 14.3911L9.18774 14.5654L8.98546 14.3911L8.78315 14.5654L8.58084 14.3911L8.37852 14.5654L8.17621 14.3911L7.97393 14.5654L7.77162 14.3911L7.5561 14.5768V18.1074L7.77162 18.2931L7.97393 18.1188L8.17621 18.2931L8.37852 18.1187L8.58084 18.2931L8.78315 18.1187L8.98546 18.2931L9.18774 18.1188L9.39008 18.2931L9.60561 18.1074V14.5768Z" fill="#383739"/>
<path d="M9.17452 14.589L8.98546 14.426L8.79636 14.589V18.0953L8.98546 18.2582L9.17452 18.0953V14.589Z" fill="#FFC72C"/>
<path d="M8.36523 14.589L8.17612 14.426L7.98706 14.589V18.0953L8.17612 18.2582L8.36523 18.0953V14.589Z" fill="#FFC72C"/>
<path d="M5.85876 17.3407L5.69586 17.1516L5.85876 16.9625H11.3029L11.4658 17.1516L11.3029 17.3407H5.85876Z" fill="#FFC72C"/>
<path d="M11.3029 16.153L11.4658 16.3421L11.3029 16.5311H5.8588L5.69586 16.3421L5.8588 16.153H11.3029Z" fill="#FFC72C"/>
<path d="M11.3029 15.722L11.4658 15.5329L11.3029 15.3439H5.85876L5.69586 15.5329L5.85876 15.722H11.3029Z" fill="#FFC72C"/>
<path d="M9.57906 14.589L9.39 14.426L9.2009 14.589V18.0953L9.39 18.2582L9.57902 18.0953L9.57906 14.589Z" fill="#D22630"/>
<path d="M7.96072 14.589L7.77162 14.426L7.58252 14.589V18.0953L7.77162 18.2582L7.96072 18.0953V14.589Z" fill="#D22630"/>
<path d="M5.8588 16.9358L5.69586 16.7467L5.8588 16.5576H11.3029L11.4658 16.7467L11.3029 16.9358H5.8588Z" fill="#D22630"/>
<path d="M5.8588 16.1267L5.69586 15.9376L5.8588 15.7485H11.3029L11.4658 15.9376L11.3029 16.1267H5.8588Z" fill="#D22630"/>
<path d="M8.76993 18.0953L8.58082 18.2582L8.39172 18.0953V14.589L8.58082 14.426L8.76993 14.589V18.0953Z" fill="#D22630"/>
<path d="M10.4085 14.6572H6.73998V14.9486H6.27115V17.7354H6.73998V18.0267H10.4218V17.7354H10.8906V14.9486H10.4218V14.6572H10.4085Z" fill="#383739"/>
<path d="M6.76686 14.6847V14.9755H6.29645V17.7098H6.76686V18.0005H7.15235L6.38466 17.357V15.3282L7.15235 14.6847H6.76686V14.6847ZM10.0108 14.6847L10.7752 15.3282V17.357L10.0108 18.0005H10.3963V17.7098H10.8634V14.9755H10.3963V14.6847H10.0108V14.6847Z" fill="#D22630"/>
<path d="M7.19474 14.6849C7.18748 14.691 6.41999 15.3338 6.41071 15.3416V17.3441C6.41999 17.3519 7.18748 17.9946 7.19474 18.0007H9.96823C9.97551 17.9946 10.7397 17.3519 10.749 17.3441V15.3416C10.7397 15.3338 9.97552 14.691 9.96823 14.6849H7.19474ZM7.23394 14.796H9.92577L10.6379 15.3938V17.2918L9.92577 17.8864H7.23394L6.52505 17.2918V15.3938L7.23394 14.796Z" fill="#00843D"/>
<path d="M7.9469 17.3217L8.06739 17.3737L8.08956 17.5145L7.93787 17.6479L8.15821 17.8609H7.9462L7.79462 17.715L7.64301 17.8609H7.431L7.65137 17.6479L7.49965 17.5145L7.52185 17.3737L7.64231 17.3217L7.79462 17.4434L7.80287 17.4369L7.9469 17.3217Z" fill="#00843D"/>
<path d="M8.73313 17.3217L8.85359 17.3737L8.87579 17.5145L8.7241 17.6479L8.94444 17.8609H8.73243L8.58082 17.715L8.42924 17.8609H8.21719L8.43756 17.6479L8.28588 17.5145L8.30808 17.3737L8.42854 17.3217L8.58082 17.4434L8.58907 17.4369L8.73313 17.3217Z" fill="#00843D"/>
<path d="M9.21484 17.3217L9.09439 17.3737L9.07219 17.5145L9.22387 17.6479L9.00354 17.8609H9.21555L9.36716 17.715L9.51874 17.8609H9.73075L9.51041 17.6479L9.6621 17.5145L9.6399 17.3737L9.51944 17.3217L9.36716 17.4434L9.35887 17.4369L9.21484 17.3217Z" fill="#00843D"/>
<path d="M7.9469 15.3624L8.06739 15.3103L8.08956 15.1696L7.93787 15.0362L8.15821 14.8231H7.9462L7.79462 14.969L7.64301 14.8231H7.431L7.65137 15.0362L7.49965 15.1696L7.52185 15.3103L7.64231 15.3624L7.79462 15.2406L7.80287 15.2472L7.9469 15.3624Z" fill="#00843D"/>
<path d="M8.73313 15.3624L8.85359 15.3103L8.87579 15.1696L8.7241 15.0362L8.94444 14.8231H8.73243L8.58082 14.969L8.42924 14.8231H8.21719L8.43756 15.0362L8.28588 15.1696L8.30808 15.3103L8.42854 15.3624L8.58082 15.2406L8.58907 15.2472L8.73313 15.3624Z" fill="#00843D"/>
<path d="M9.21484 15.3624L9.09439 15.3103L9.07219 15.1696L9.22387 15.0362L9.00354 14.8231H9.21555L9.36716 14.969L9.51874 14.8231H9.73075L9.51041 15.0362L9.6621 15.1696L9.6399 15.3103L9.51944 15.3624L9.36716 15.2406L9.35887 15.2472L9.21484 15.3624Z" fill="#00843D"/>
<path d="M10.6102 15.5873L10.4899 15.6869L10.6102 15.7864V15.9515L10.4252 15.7991C10.4252 15.7991 10.3009 15.9118 10.2925 15.9193C10.2818 15.918 10.162 15.903 10.1502 15.9015C10.1449 15.8917 10.1075 15.8228 10.1 15.809C10.1124 15.7966 10.2225 15.6869 10.2225 15.6869C10.2225 15.6869 10.1124 15.5771 10.1 15.5648C10.1075 15.5509 10.1449 15.4819 10.1502 15.4722C10.162 15.4708 10.2818 15.4557 10.2925 15.4543C10.3009 15.4619 10.4252 15.5746 10.4252 15.5746L10.6102 15.4222V15.5873Z" fill="#00843D"/>
<path d="M10.6102 16.2428L10.4899 16.3424L10.6102 16.4419V16.607L10.4252 16.4546C10.4252 16.4546 10.3009 16.5673 10.2925 16.5749C10.2818 16.5735 10.162 16.5584 10.1502 16.557C10.1449 16.5473 10.1075 16.4782 10.1 16.4645C10.1124 16.4521 10.2225 16.3424 10.2225 16.3424C10.2225 16.3424 10.1124 16.2326 10.1 16.2202C10.1075 16.2065 10.1449 16.1374 10.1502 16.1277C10.162 16.1263 10.2818 16.1112 10.2925 16.1098C10.3009 16.1174 10.4252 16.2301 10.4252 16.2301L10.6102 16.0778V16.2428Z" fill="#00843D"/>
<path d="M10.6102 17.0972L10.4899 16.9977L10.6102 16.8981V16.733L10.4252 16.8855C10.4252 16.8855 10.3009 16.7727 10.2925 16.7652C10.2818 16.7665 10.162 16.7816 10.1502 16.783C10.1449 16.7928 10.1075 16.8618 10.1 16.8755C10.1124 16.8879 10.2225 16.9977 10.2225 16.9977C10.2225 16.9977 10.1124 17.1074 10.1 17.1198C10.1075 17.1336 10.1449 17.2026 10.1502 17.2123C10.162 17.2138 10.2818 17.2288 10.2925 17.2302C10.3009 17.2226 10.4252 17.1099 10.4252 17.1099L10.6102 17.2623V17.0972Z" fill="#00843D"/>
<path d="M6.5517 15.5873L6.67193 15.6869L6.5517 15.7864V15.9515L6.73665 15.7991C6.73665 15.7991 6.86103 15.9118 6.86939 15.9193C6.88002 15.918 6.99988 15.903 7.01172 15.9015C7.01701 15.8917 7.05439 15.8228 7.06186 15.809C7.04947 15.7966 6.93937 15.6869 6.93937 15.6869C6.93937 15.6869 7.04947 15.5771 7.06186 15.5648C7.05439 15.5509 7.01701 15.4819 7.01172 15.4722C6.99988 15.4708 6.88002 15.4557 6.86939 15.4543C6.86103 15.4619 6.73665 15.5746 6.73665 15.5746L6.5517 15.4222V15.5873Z" fill="#00843D"/>
<path d="M6.5517 16.2428L6.67193 16.3424L6.5517 16.4419V16.607L6.73665 16.4546C6.73665 16.4546 6.86103 16.5673 6.86939 16.5749C6.88002 16.5735 6.99988 16.5584 7.01172 16.557C7.01701 16.5473 7.05439 16.4782 7.06186 16.4645C7.04947 16.4521 6.93937 16.3424 6.93937 16.3424C6.93937 16.3424 7.04947 16.2326 7.06186 16.2202C7.05439 16.2065 7.01701 16.1374 7.01172 16.1277C6.99988 16.1263 6.88002 16.1112 6.86939 16.1098C6.86103 16.1174 6.73665 16.2301 6.73665 16.2301L6.5517 16.0778V16.2428Z" fill="#00843D"/>
<path d="M6.5517 17.0972L6.67193 16.9977L6.5517 16.8981V16.733L6.73665 16.8855C6.73665 16.8855 6.86103 16.7727 6.86939 16.7652C6.88002 16.7665 6.99988 16.7816 7.01172 16.783C7.01701 16.7928 7.05439 16.8618 7.06186 16.8755C7.04947 16.8879 6.93937 16.9977 6.93937 16.9977C6.93937 16.9977 7.04947 17.1074 7.06186 17.1198C7.05439 17.1336 7.01701 17.2026 7.01172 17.2123C6.99988 17.2138 6.88002 17.2288 6.86939 17.2302C6.86103 17.2226 6.73665 17.1099 6.73665 17.1099L6.5517 17.2623V17.0972Z" fill="#00843D"/>
<path d="M7.24377 14.8222C7.23663 14.8282 6.58987 15.3696 6.56101 15.3939C6.61931 15.4422 6.6757 15.4927 6.73415 15.5409C6.74894 15.5275 6.86155 15.4265 6.86155 15.4265L7.02816 15.4494L7.09349 15.5702C7.09349 15.5702 6.99188 15.6719 6.97589 15.6878C6.99188 15.7037 7.09349 15.8054 7.09349 15.8054L7.02816 15.9263L6.86155 15.9459C6.86155 15.9459 6.74895 15.8482 6.73415 15.8348L6.55121 15.9884V16.0407C6.61275 16.0916 6.67238 16.1433 6.73415 16.1942C6.74895 16.1808 6.86155 16.0831 6.86155 16.0831L7.02816 16.1027L7.09349 16.2236C7.09349 16.2236 6.99188 16.3253 6.97589 16.3412C6.99188 16.3571 7.09349 16.4588 7.09349 16.4588L7.02816 16.5829L6.86155 16.6025C6.86155 16.6025 6.74895 16.5016 6.73415 16.4882L6.55121 16.6417V16.6973L6.73415 16.8508C6.74895 16.8375 6.86155 16.7365 6.86155 16.7365L7.02816 16.7593L7.09349 16.8802C7.09349 16.8802 6.99188 16.9819 6.97589 16.9978C6.99188 17.0137 7.09349 17.1154 7.09349 17.1154L7.02816 17.2363L6.86155 17.2592C6.86155 17.2592 6.74895 17.1582 6.73415 17.1448C6.67593 17.1928 6.61909 17.2407 6.56101 17.2886C6.58986 17.3128 7.23662 17.8542 7.24376 17.8603H7.39404L7.61291 17.6479L7.47244 17.5238L7.49857 17.3539L7.64558 17.2918L7.79585 17.4094L7.94286 17.2918L8.08986 17.3539L8.11926 17.5238L7.97552 17.6479L8.18786 17.8505L8.40021 17.6479L8.25647 17.5238L8.2826 17.3539L8.43287 17.2918L8.57988 17.4094L8.73015 17.2918L8.87716 17.3539L8.90329 17.5238L8.76282 17.6479L8.97189 17.8537L9.18423 17.6479L9.04376 17.5238L9.0699 17.3539L9.22017 17.2918L9.36717 17.4094L9.51418 17.2918L9.66445 17.3539L9.69058 17.5238L9.55011 17.6479L9.76899 17.8603H9.91599C9.92313 17.8542 10.5699 17.3128 10.5987 17.2886C10.5406 17.2406 10.4839 17.1929 10.4256 17.1448C10.4108 17.1582 10.3015 17.2592 10.3015 17.2592L10.1349 17.2363L10.0663 17.1154C10.0663 17.1154 10.1679 17.0137 10.1839 16.9978C10.1679 16.9819 10.0663 16.8802 10.0663 16.8802L10.1349 16.7593L10.3015 16.7365C10.3015 16.7365 10.4108 16.8375 10.4256 16.8508L10.6085 16.6973V16.6417L10.4256 16.4882C10.4108 16.5016 10.3015 16.6025 10.3015 16.6025L10.1349 16.5829L10.0663 16.4588C10.0663 16.4588 10.1679 16.3571 10.1839 16.3412C10.1679 16.3253 10.0663 16.2236 10.0663 16.2236L10.1349 16.1027L10.3015 16.0831C10.3015 16.0831 10.4108 16.1808 10.4256 16.1942C10.4869 16.1437 10.5473 16.0943 10.6085 16.0439V15.9851L10.4256 15.8348C10.4108 15.8482 10.3015 15.9459 10.3015 15.9459L10.1349 15.9263L10.0663 15.8054C10.0663 15.8054 10.1679 15.7037 10.1839 15.6878C10.1679 15.6719 10.0663 15.5702 10.0663 15.5702L10.1349 15.4494L10.3015 15.4265C10.3015 15.4265 10.4108 15.5275 10.4256 15.5408C10.4842 15.4926 10.5435 15.4453 10.602 15.3971C10.5795 15.3782 9.92317 14.8282 9.91599 14.8221H9.76899L9.55011 15.0345L9.69058 15.1586L9.66445 15.3285L9.51418 15.3938L9.36717 15.2762L9.22017 15.3938L9.06989 15.3285L9.04376 15.1586L9.18423 15.0345L8.97516 14.8319L8.76282 15.0345L8.90329 15.1586L8.87715 15.3285L8.73015 15.3938L8.57988 15.2762L8.43287 15.3938L8.2826 15.3285L8.25646 15.1586L8.4002 15.0345L8.18786 14.8319L7.97552 15.0345L8.11926 15.1586L8.08986 15.3285L7.94285 15.3938L7.79585 15.2762L7.64558 15.3938L7.49857 15.3285L7.47244 15.1586L7.61291 15.0345L7.39077 14.8221L7.24377 14.8222ZM6.55121 16.2759V16.4098L6.62962 16.3412L6.55121 16.2759Z" fill="#D22630"/>
<path d="M7.79591 17.7521L7.68155 17.8599H7.90693L7.79591 17.7521Z" fill="white"/>
<path d="M8.57986 17.7521L8.46884 17.8599H8.69422L8.57986 17.7521Z" fill="white"/>
<path d="M9.3671 17.7521L9.25284 17.8599H9.48146L9.3671 17.7521Z" fill="white"/>
<path d="M7.67838 14.8219L7.79598 14.9329L7.91034 14.8219H7.67838Z" fill="white"/>
<path d="M8.46555 14.8219L8.57991 14.9329L8.69751 14.8219H8.46555Z" fill="white"/>
<path d="M9.25284 14.8219L9.3671 14.9329L9.48146 14.8219H9.25284Z" fill="white"/>
<path d="M10.6086 15.6221L10.5302 15.6874L10.6086 15.7495V15.6221Z" fill="white"/>
<path d="M10.6086 16.2756L10.5302 16.341L10.6086 16.4063V16.2756Z" fill="white"/>
<path d="M10.6086 16.9321L10.5302 16.9975L10.6086 17.0628V16.9321Z" fill="white"/>
<path d="M6.55121 15.619V15.7529L6.62961 15.6876L6.55121 15.619Z" fill="white"/>
<path d="M6.55121 16.2756V16.4095L6.62961 16.341L6.55121 16.2756Z" fill="white"/>
<path d="M6.55121 16.929V17.0629L6.62961 16.9975L6.55121 16.929Z" fill="white"/>
<path d="M9.25329 16.1234V15.8895H9.01664V15.6332H8.14503V15.8895H7.90838V16.1234H7.58154V16.5611H7.90838V16.7949H8.14503V17.0513H9.01664V16.7949H9.25329V16.5611H9.58009V16.1234H9.25329Z" fill="#383739"/>
<path d="M8.56764 15.6595V15.9238L8.19299 16.1368V16.329H7.60803V16.1497H7.93483V15.9159H8.17149V15.6595H8.56764Z" fill="#FFC72C"/>
<path d="M8.59402 17.0249V16.7606L8.96864 16.5476V16.3555H9.55363V16.5347H9.22683V16.7685H8.99017V17.0249H8.59402Z" fill="#FFC72C"/>
<path d="M8.96864 16.329V16.1368L8.59402 15.9238V15.6595H8.99017V15.9159H9.22683V16.1497H9.55363V16.329H8.96864Z" fill="white"/>
<path d="M7.60803 16.3555H8.19299V16.5476L8.56764 16.7606V17.0249H8.17149V16.7685H7.93483V16.5347H7.60803V16.3555Z" fill="white"/>
<path d="M8.21948 16.3555V16.5336L8.56767 16.7316V16.3555H8.21948Z" fill="#D22630"/>
<path d="M8.56767 15.9529L8.21948 16.1508V16.329H8.56767V15.9529Z" fill="#00843D"/>
<path d="M8.94231 16.329V16.1508L8.59412 15.9529V16.329H8.94231Z" fill="#D22630"/>
<path d="M8.59402 16.7316L8.94222 16.5336V16.3555H8.59402V16.7316Z" fill="#00843D"/>
<path d="M5.41366 20.9878V21.7105H4.72501V22.3659H4.02704V24.2322H4.72501V24.8876H5.41366V25.6103H7.9176L8.35794 25.8749L8.14634 26.002H7.25349L7.17648 25.9152H7.98562L7.75766 25.6856H6.60022L7.12463 26.2316H8.21002L8.58079 26.0088L8.95155 26.2316H10.037L10.5614 25.6856H9.40399L9.17599 25.9152H9.98517L9.90812 26.002H9.01524L8.80364 25.8749L9.24401 25.6103H11.748V24.8876H12.4366V24.2322H13.1345V22.3659H12.4366V21.7105H11.748V20.9878H9.24401L8.80364 20.7233L9.01524 20.5961H9.90812L9.98517 20.683H9.17599L9.40399 20.9125H10.5614L10.037 20.3666H8.95155L8.58079 20.5894L8.21002 20.3666H7.12463L6.60022 20.9125H7.75766L7.98562 20.683H7.17648L7.25349 20.5961H8.14634L8.35794 20.7233L7.9176 20.9878H5.41366Z" fill="#D22630"/>
<path d="M9.23653 25.5826H11.7225V24.8607H12.4086V24.2041H13.1077V22.391H12.4086V21.7376H11.7225V21.0157H9.23653L8.20423 20.3917H7.13598L6.6623 20.885H7.74688L7.92328 20.7086H7.11639L7.24053 20.5681H8.15522L9.32473 21.2738H11.4612V21.9957H12.1505V22.6523H12.8496V23.946H12.1505V24.6026H11.4612V25.3246H9.32473L8.15522 26.0269H7.24053L7.11639 25.8897H7.92328L7.74688 25.7133H6.6623L7.13598 26.2066H8.20423L9.23653 25.5826ZM7.83508 25.3246H5.69861V24.6026H5.01259V23.946H4.31349V22.6523H5.01259V21.9957H5.69861V21.2738H7.83508L9.00786 20.5681H9.9193L10.0434 20.7086H9.23981L9.41621 20.885H10.5008L10.0271 20.3917H8.95886L7.92655 21.0157H5.44054V21.7376H4.75125V22.391H4.05215V24.2041H4.75125V24.8607H5.44054V25.5826H7.92655L8.95886 26.2066H10.0271L10.5008 25.7133H9.41621L9.23981 25.8897H10.0434L9.9193 26.0269H9.00786L7.83508 25.3246Z" fill="#FFC72C"/>
<path d="M11.2543 24.3939V25.1166H9.26826L8.5809 25.5296L7.89355 25.1166H5.90758V24.3939H5.2189V23.7385H4.52097V22.8598H5.2189V22.2043H5.90758V21.4817H7.88989H7.89355L8.5809 21.0687L9.26826 21.4817H11.2543V22.2043H11.9429V22.8598H12.6408V23.7385H11.9429V24.3939H11.2543Z" fill="#00843D"/>
<path d="M6.16766 24.1407V24.8401H7.25934L6.16766 24.1161V24.1407Z" fill="#383739"/>
<path d="M6.16763 22.4576V21.7582H7.25931L6.16763 22.4822V22.4576Z" fill="#383739"/>
<path d="M10.9944 24.1407V24.8401H9.90271L10.9944 24.1161V24.1407Z" fill="#383739"/>
<path d="M10.9944 22.4576V21.7582H9.90271L10.9944 22.4822V22.4576Z" fill="#383739"/>
<path d="M6.19415 24.1652L7.17171 24.8135H6.19415V24.1652Z" fill="#D22630"/>
<path d="M6.19415 22.4332C6.23216 22.4079 7.1051 21.8289 7.17171 21.7848H6.19415V22.4332Z" fill="#D22630"/>
<path d="M10.9678 24.1652C10.9297 24.1904 10.0568 24.7694 9.99023 24.8135H10.9678V24.1652Z" fill="#D22630"/>
<path d="M10.9678 22.4332C10.9297 22.408 10.0568 21.829 9.99023 21.7848H10.9678V22.4332Z" fill="#D22630"/>
<path d="M7.55989 23.1071V22.75H7.43806L6.85359 22.3845L6.8466 22.3889L6.26915 22.75H6.14733V23.1071H5.87256V23.4907H6.14733V23.8479H6.26915L6.85359 24.2133L7.43806 23.8479H7.55989V23.4907H7.97817V23.1071H7.55989Z" fill="#383739"/>
<path d="M6.85358 22.4156L7.38821 22.7499H6.31903L6.85358 22.4156ZM7.38814 23.8478L6.85358 24.1821L6.31907 23.8478H7.38814Z" fill="#D22630"/>
<path d="M7.25877 23.1337V23.4644H6.5921V23.1337H7.25877Z" fill="#D22630"/>
<path d="M7.53352 23.4906V23.8214H6.86685V23.4906H7.53352Z" fill="#FFC72C"/>
<path d="M6.84049 23.4906V23.8214H6.17383V23.4906H6.84049Z" fill="#FFC72C"/>
<path d="M7.95179 23.1335V23.4643H7.28513V23.1335H7.95179Z" fill="#FFC72C"/>
<path d="M6.56571 23.1335V23.4643H5.89905V23.1335H6.56571Z" fill="#FFC72C"/>
<path d="M7.53352 22.7764V23.1071H6.86685V22.7764H7.53352Z" fill="#FFC72C"/>
<path d="M6.84049 22.7764V23.1071H6.17383V22.7764H6.84049Z" fill="#FFC72C"/>
<path d="M6.38209 23.2074V23.3912H6.08264V23.2074H6.38209Z" fill="#383739"/>
<path d="M6.65697 22.8501V23.0339H6.35751V22.8501H6.65697Z" fill="#383739"/>
<path d="M7.3499 22.8501V23.0339H7.05045V22.8501H7.3499Z" fill="#383739"/>
<path d="M7.07512 23.2074V23.3912H6.77567V23.2074H7.07512Z" fill="#383739"/>
<path d="M7.76827 23.2074V23.3912H7.46881V23.2074H7.76827Z" fill="#383739"/>
<path d="M7.3499 23.5646V23.7483H7.05045V23.5646H7.3499Z" fill="#383739"/>
<path d="M6.65697 23.5646V23.7483H6.35751V23.5646H6.65697Z" fill="#383739"/>
<path d="M6.35393 23.2351H6.11087V23.3625H6.35393V23.2351Z" fill="white"/>
<path d="M6.6288 22.8779H6.38574V23.0053H6.6288V22.8779Z" fill="white"/>
<path d="M7.32182 22.8779H7.07877V23.0053H7.32182V22.8779Z" fill="white"/>
<path d="M7.04695 23.2351H6.80389V23.3625H7.04695V23.2351Z" fill="white"/>
<path d="M7.7401 23.2351H7.49704V23.3625H7.7401V23.2351Z" fill="white"/>
<path d="M7.32182 23.5923H7.07877V23.7197H7.32182V23.5923Z" fill="white"/>
<path d="M6.6288 23.5923H6.38574V23.7197H6.6288V23.5923Z" fill="white"/>
<path d="M9.28716 22.5106V22.8678H9.16534L8.58086 23.2332L8.57387 23.2289L7.99643 22.8678H7.8746V22.5106H7.52808V22.127H7.8746V21.7699H7.99643L8.58086 21.4044L9.16534 21.7699H9.28716V22.127H9.63369V22.5106H9.28716Z" fill="#383739"/>
<path d="M8.58097 23.2019L9.11556 22.8676H8.04642L8.58097 23.2019ZM9.11552 21.7697L8.58097 21.4354L8.04645 21.7697H9.11552Z" fill="#FFC72C"/>
<path d="M9.26075 22.1267V21.796H8.59409V22.1267H9.26075Z" fill="#D22630"/>
<path d="M8.56782 22.1267V21.796H7.90115V22.1267H8.56782Z" fill="#D22630"/>
<path d="M9.60734 22.4842V22.1534H8.94067V22.4842H9.60734Z" fill="#D22630"/>
<path d="M8.91428 22.4842V22.1534H8.24762V22.4842H8.91428Z" fill="#D22630"/>
<path d="M8.22122 22.4842V22.1534H7.5546V22.4842H8.22122Z" fill="#D22630"/>
<path d="M9.26075 22.8411V22.5104H8.59409V22.8411H9.26075Z" fill="#D22630"/>
<path d="M8.56782 22.8411V22.5104H7.90115V22.8411H8.56782Z" fill="#D22630"/>
<path d="M8.3842 21.8699V22.0536H8.08475V21.8699H8.3842Z" fill="#383739"/>
<path d="M9.07723 21.8699V22.0536H8.77777V21.8699H9.07723Z" fill="#383739"/>
<path d="M8.03764 22.2268V22.4106H7.73819V22.2268H8.03764Z" fill="#383739"/>
<path d="M8.73079 22.2268V22.4106H8.43134V22.2268H8.73079Z" fill="#383739"/>
<path d="M9.42381 22.2268V22.4106H9.12436V22.2268H9.42381Z" fill="#383739"/>
<path d="M8.3842 22.584V22.7678H8.08475V22.584H8.3842Z" fill="#383739"/>
<path d="M9.07723 22.584V22.7678H8.77777V22.584H9.07723Z" fill="#383739"/>
<path d="M8.35588 21.8977H8.11282V22.0251H8.35588V21.8977Z" fill="white"/>
<path d="M9.04903 21.8977H8.80597V22.0251H9.04903V21.8977Z" fill="white"/>
<path d="M8.00941 22.2549H7.76636V22.3823H8.00941V22.2549Z" fill="white"/>
<path d="M8.70247 22.2549H8.45941V22.3823H8.70247V22.2549Z" fill="white"/>
<path d="M9.39537 22.2549H9.15231V22.3823H9.39537V22.2549Z" fill="white"/>
<path d="M8.35588 22.6122H8.11282V22.7396H8.35588V22.6122Z" fill="white"/>
<path d="M9.04903 22.6122H8.80597V22.7396H9.04903V22.6122Z" fill="white"/>
<path d="M4.79871 28.7359L7.39232 27.3401H7.39565H9.76929L12.3629 28.7359V31.0358L9.76929 32.4316H7.39232L4.79871 31.0358V28.7359Z" fill="#383739"/>
<path d="M7.40069 27.3665L4.82645 28.7516V31.0187L7.40069 32.4038H9.76249L12.3368 31.0187V28.7516L9.76249 27.3665H7.40069ZM7.44637 27.5526H9.71681L12.1539 28.8626V30.9109L9.71681 32.2208H7.445L5.00802 30.9109V28.8626L7.44637 27.5526Z" fill="#00843D"/>
<path d="M8.59402 29.8726V32.1941H9.71009L12.1268 30.8935V29.899L8.5676 29.899V27.5775H7.45157L5.03485 28.8781V29.8726L8.59402 29.8726Z" fill="#FFC72C"/>
<path d="M8.5676 29.8726V32.1941H7.45157L5.03485 30.8935V29.899L8.59402 29.899V27.5775H9.71009L12.1268 28.8781V29.8726L8.5676 29.8726Z" fill="white"/>
<path d="M8.7977 32.0641V31.3931L8.58077 31.5307L8.3638 31.3931V32.0641H7.68896L8.14432 31.7301V31.2538L7.44986 30.8132H6.9646V28.9584H7.44986L8.14432 28.5178V28.0415L7.68896 27.7075H7.72933H8.3638V28.3786L8.58077 28.2409L8.7977 28.3786V27.7075H9.47258L9.01718 28.0415V28.5178L9.71164 28.9584H10.1969V30.8132H9.71164L9.01718 31.2538V31.7301L9.47258 32.0641H8.7977Z" fill="#383739"/>
<path d="M8.82494 27.7356V28.4282L8.59297 28.2812V28.4772L9.65465 29.1533H10.0042V29.8721H10.1709V28.9836H9.70368L8.99157 28.5327V28.0296L9.39331 27.7356H8.82494H8.82494ZM6.99225 29.8983V30.7868H7.45613L8.17159 31.2408V31.744L7.76975 32.0379H8.33822V31.3454L8.56684 31.4924V31.2899L7.50516 30.6202H7.15885V29.8983H6.99225L6.99225 29.8983Z" fill="#FFC72C"/>
<path d="M7.76974 27.7356L8.17158 28.0296V28.5327L7.45613 28.9836H6.99225V29.8721H7.15885V29.1533H7.50516L8.56684 28.4804V28.2812L8.33822 28.4282V27.7356H7.76975L7.76974 27.7356ZM10.0042 29.8983V30.6202H9.65465L8.59297 31.2898V31.4924L8.82494 31.3454V32.0379H9.3933L8.99157 31.744V31.2408L9.70368 30.7868H10.1709V29.8983H10.0042L10.0042 29.8983Z" fill="white"/>
<path d="M7.18405 30.5926H7.51326L8.58074 31.2699L9.64818 30.5926H9.97742V29.1792H9.65203H9.64818L8.58074 28.502L7.51326 29.1792H7.18405V30.5926Z" fill="#D22630"/>
<path d="M9.31966 30.2217H9.54758V30.1139H9.37613V29.9179H9.74257V30.4178H9.39127L9.3913 30.7588H8.66817V30.2688H8.98642V30.4648H8.86315V30.5628H9.19632V30.3755L7.84182 29.55H7.6139V29.6578H7.78539V29.8539H7.41891V29.354H7.77021V29.0129H7.78343H8.49331V29.503H8.17506V29.307H8.29833V29.209H7.9652V29.3963L9.31966 30.2217ZM9.19632 29.3963V29.209H8.86315V29.307H8.98642V29.503H8.66817V29.0129H9.3913V29.354H9.74257V29.8539H9.37613V29.6578H9.54762V29.55H9.31966L7.9652 30.3755V30.5628H8.29833V30.4648H8.17506V30.2688H8.49331V30.7588H7.77021V30.4178H7.41891V29.9179H7.78539V30.1139H7.6139V30.2217H7.84182L9.19632 29.3963Z" fill="#383739"/>
<path d="M9.22289 30.3606V30.5892H8.83685V30.4384H8.96015V30.2952H8.69474V30.7323H9.365V30.3913H9.7163V29.9443H9.4027V30.0874H9.57415V30.2481H9.31241L7.93889 29.4111V29.1825H8.32494V29.3333H8.20167V29.4765H8.46704V29.0393H7.79679V29.3804H7.44553V29.8274H7.75908V29.6842H7.58763V29.5235H7.84937L9.22289 30.3606ZM9.31241 29.5235H9.57419V29.6842H9.4027V29.8274H9.7163V29.3804H9.36503V29.0393H8.69478V29.4765H8.96015V29.3333H8.83688V29.1825H9.22289V29.4111L7.84937 30.2481H7.58763V30.0874H7.75908V29.9443H7.44553V30.3913H7.79679V30.7323H8.46704V30.2951H8.20167V30.4383H8.32494V30.5892H7.93889V30.3605L9.31241 29.5235Z" fill="white"/>
<path d="M11.6059 30.0022V30.7276H11.2972V30.4714H10.986V30.7276H10.6773V30.0022H10.986V30.2584H11.2972V30.0022H11.6059Z" fill="#383739"/>
<path d="M10.5012 30.9652V31.6906H10.1925V31.4344H9.88128V31.6906H9.57257V30.9652H9.88128V31.2214H10.1925V30.9652H10.5012Z" fill="#383739"/>
<path d="M11.6059 29.7697V29.0443H11.2972V29.3005H10.986V29.0443H10.6773V29.7697H10.986V29.5135H11.2972V29.7697H11.6059Z" fill="#383739"/>
<path d="M5.55594 30.0022V30.7276H5.86464V30.4714H6.17583V30.7276H6.48453V30.0022H6.17583V30.2584H5.86464V30.0022H5.55594Z" fill="#383739"/>
<path d="M5.55594 29.7697V29.0443H5.86464V29.3005H6.17583V29.0443H6.48453V29.7697H6.17583V29.5135H5.86464V29.7697H5.55594Z" fill="#383739"/>
<path d="M10.5012 28.8066V28.0812H10.1925V28.3374H9.88128V28.0812H9.57257V28.8066H9.88128V28.5504H10.1925V28.8066H10.5012Z" fill="#383739"/>
<path d="M6.66064 30.9652V31.6906H6.96935V31.4344H7.28053V31.6906H7.58924V30.9652H7.28053V31.2214H6.96935V30.9652H6.66064Z" fill="#383739"/>
<path d="M6.66064 28.8066V28.0812H6.96935V28.3374H7.28053V28.0812H7.58924V28.8066H7.28053V28.5504H6.96935V28.8066H6.66064Z" fill="#383739"/>
<path d="M10.6852 28.2985V28.8494H11.7089L10.6852 28.2985Z" fill="#383739"/>
<path d="M6.47642 31.4739V30.923H5.45276L6.47642 31.4739Z" fill="#383739"/>
<path d="M6.47642 28.2985V28.8494H5.45276L6.47642 28.2985Z" fill="#383739"/>
<path d="M10.6852 31.4739V30.923H11.7089L10.6852 31.4739Z" fill="#383739"/>
<path d="M11.3234 30.4449V30.7011H11.5792V30.0286H11.3234V30.2848H10.9593V30.0286H10.7035V30.7011H10.9593V30.4449H11.3234Z" fill="#D22630"/>
<path d="M10.2188 31.4081V31.6642H10.4746V30.9917H10.2188V31.2479H9.85473V30.9917H9.59891V31.6642H9.85473V31.4081H10.2188Z" fill="#D22630"/>
<path d="M11.3234 29.3267V29.0706H11.5792V29.7431H11.3234V29.4869H10.9593V29.7431H10.7035V29.0706H10.9593V29.3267H11.3234Z" fill="#D22630"/>
<path d="M5.83822 30.4449V30.7011H5.5824V30.0286H5.83822V30.2848H6.20229V30.0286H6.45811V30.7011H6.20229V30.4449H5.83822Z" fill="#D22630"/>
<path d="M5.83822 29.3267V29.0706H5.5824V29.7431H5.83822V29.4869H6.20229V29.7431H6.45811V29.0706H6.20229V29.3267H5.83822Z" fill="#D22630"/>
<path d="M10.2188 28.3638V28.1075H10.4746V28.7801H10.2188V28.5239H9.85473V28.7801H9.59891V28.1075H9.85473V28.3638H10.2188Z" fill="#D22630"/>
<path d="M6.9428 31.4081V31.6642H6.68698V30.9917H6.9428V31.2479H7.30687V30.9917H7.56273V31.6642H7.30687V31.4081H6.9428Z" fill="#D22630"/>
<path d="M6.9428 28.3638V28.1075H6.68698V28.7801H6.9428V28.5239H7.30687V28.7801H7.56273V28.1075H7.30687V28.3638H6.9428Z" fill="#D22630"/>
<path d="M10.7132 28.3433V28.8235H11.6051L10.7132 28.3433ZM5.55828 30.9502L6.45011 31.4304V30.9502H5.55823H5.55828Z" fill="#FFC72C"/>
<path d="M6.45006 28.3433L5.55823 28.8235H6.45006V28.3433ZM10.7132 30.9502V31.4304L11.6051 30.9502H10.7132Z" fill="white"/>
<path d="M12.7687 31.9104C12.7194 32.1205 12.5523 32.2792 12.5125 32.4971C12.4327 32.2699 12.3593 32.0794 12.4141 31.8308C12.4534 31.6529 12.603 31.5261 12.6203 31.3434C12.7834 31.49 12.8185 31.698 12.7687 31.9104V31.9104ZM12.81 32.7909C12.6717 32.9806 12.4794 33.126 12.267 33.223C12.3089 33.0569 12.2304 32.9318 12.1433 32.7999C12.0384 32.6412 11.9873 32.4852 12.0728 32.3024C12.1126 32.3975 12.1662 32.4764 12.229 32.5577C12.322 32.6845 12.3831 32.7972 12.3974 32.9598C12.5048 32.8801 12.5521 32.7612 12.6095 32.6461C12.6971 32.4813 12.8385 32.3434 13.0009 32.2533C12.9577 32.4383 12.9245 32.6338 12.81 32.7909V32.7909ZM12.0342 33.3562C12.0638 33.4615 12.0893 33.566 12.0836 33.6761C12.175 33.5776 12.2963 33.5035 12.4046 33.4241C12.5521 33.3049 12.724 33.2207 12.8446 33.0689C12.8266 33.2924 12.7309 33.4746 12.5493 33.6106C12.3573 33.7543 12.1257 33.8316 11.9366 33.9824C11.965 33.7792 11.8903 33.6163 11.8266 33.4295C11.7735 33.2509 11.8249 33.0696 11.946 32.9335C11.9442 33.0844 11.9917 33.2139 12.0342 33.3562L12.0342 33.3562ZM11.6033 34.0429C11.5636 34.1971 11.4531 34.3225 11.3776 34.4601C11.5811 34.397 11.7606 34.2866 11.9445 34.1828C12.1636 34.0635 12.4014 33.9876 12.5998 33.8301C12.5011 34.1955 12.2565 34.4073 11.8986 34.5153C11.6539 34.5892 11.4477 34.5524 11.1508 34.6723C11.1849 34.4714 11.2449 34.2544 11.3399 34.0732C11.4136 33.9421 11.4954 33.8129 11.541 33.6685C11.607 33.7871 11.6382 33.9077 11.6033 34.0429H11.6033ZM10.8547 34.602C10.7846 34.722 10.6921 34.823 10.5775 34.9027C10.8663 34.9211 11.0987 34.738 11.3803 34.7301C11.5542 34.7252 11.7193 34.7792 11.8967 34.763C11.6862 34.905 11.4659 35.029 11.2096 35.0622C10.8765 35.1052 10.5692 35.0214 10.2017 35.0542C10.3735 34.933 10.4594 34.7708 10.5665 34.5963C10.7059 34.3785 10.8374 34.2232 11.1086 34.1882C10.9997 34.3105 10.9364 34.462 10.8547 34.602V34.602ZM9.82889 35.0814C10.3377 35.1679 10.8253 35.2798 11.345 35.285C10.7633 35.4878 10.2152 35.5244 9.63827 35.3151C9.3265 35.2019 9.08744 35.1413 8.85197 35.1582C8.50785 35.1829 8.08964 35.3187 7.62681 35.8068L7.44489 35.6613C8.10824 35.0702 8.97618 34.9364 9.82886 35.0813L9.82889 35.0814Z" fill="#FFC72C"/>
</g>
<defs>
<clipPath id="clip0_1111_15121">
<rect width="36" height="36" rx="18" fill="white"/>
</clipPath>
</defs>
</svg>
